<svg height="512pt" viewBox="-8 0 511 512" width="512pt" xmlns="http://www.w3.org/2000/svg"><g fill="#00984c"><path d="m160.101562 206.734375c-13.226562 0-20.105468-16.113281-10.609374-25.605469l64.269531-64.269531c5.855469-5.855469 15.355469-5.855469 21.210937 0 5.859375 5.859375 5.859375 15.355469 0 21.214844l-64.265625 64.265625c-2.929687 2.929687-6.769531 4.394531-10.605469 4.394531zm0 0"/><path d="m15.5 174.601562c-8.285156 0-15-6.71875-15-15v-32.132812c0-3.980469 1.582031-7.796875 4.394531-10.609375l48.199219-48.199219c5.855469-5.855468 15.355469-5.855468 21.214844 0 5.855468 5.859375 5.855468 15.355469 0 21.214844l-43.808594 43.804688v25.921874c0 8.28125-6.714844 15-15 15zm0 0"/><path d="m111.898438 512c-13.222657 0-20.101563-16.109375-10.605469-25.605469l27.738281-27.742187v-106.253906c0-3.976563 1.582031-7.792969 4.394531-10.605469l71.765625-71.761719c5.859375-5.855469 15.355469-5.855469 21.210938 0 5.859375 5.859375 5.859375 15.355469 0 21.214844l-67.371094 67.367187v106.253907c0 3.976562-1.582031 7.792968-4.394531 10.605468l-32.132813 32.132813c-2.925781 2.929687-6.765625 4.394531-10.605468 4.394531zm0 0"/><path d="m50.582031 333.386719c-5.859375-5.855469-5.859375-15.351563 0-21.210938l66.777344-66.78125c2.8125-2.8125 6.628906-4.394531 10.609375-4.394531h87.828125c8.285156 0 15 6.714844 15 15s-6.714844 15-15 15h-81.617187l-62.382813 62.386719c-5.863281 5.859375-15.359375 5.859375-21.214844 0zm0 0"/><path d="m213.761719 57.738281-27.742188-27.738281h-25.917969c-8.285156 0-15-6.714844-15-15s6.714844-15 15-15h32.132813c3.976563 0 7.792969 1.578125 10.605469 4.394531l32.132812 32.132813c5.855469 5.859375 5.855469 15.355468 0 21.214844-5.859375 5.855468-15.355468 5.855468-21.210937-.003907zm0 0"/></g><path d="m261.960938 57.738281c-5.859376-5.855469-5.859376-15.351562 0-21.210937l32.132812-32.132813c2.8125-2.816406 6.628906-4.394531 10.605469-4.394531h32.132812c8.285157 0 15 6.714844 15 15s-6.714843 15-15 15h-25.917969l-27.742187 27.738281c-5.859375 5.863281-15.355469 5.859375-21.210937 0zm0 0" fill="#007f41"/><path d="m336.859375 206.734375c13.222656 0 20.101563-16.113281 10.605469-25.605469l-64.269532-64.269531c-5.855468-5.855469-15.351562-5.855469-21.210937 0-5.859375 5.859375-5.859375 15.355469 0 21.214844l64.265625 64.265625c2.929688 2.929687 6.769531 4.394531 10.609375 4.394531zm0 0" fill="#007f41"/><path d="m481.457031 174.601562c8.285157 0 15-6.71875 15-15v-32.132812c0-3.980469-1.578125-7.796875-4.394531-10.609375l-48.199219-48.199219c-5.855469-5.855468-15.355469-5.855468-21.210937 0-5.859375 5.859375-5.859375 15.355469 0 21.214844l43.804687 43.804688v25.921874c0 8.28125 6.71875 15 15 15zm0 0" fill="#007f41"/><path d="m385.058594 512c13.222656 0 20.101562-16.109375 10.605468-25.605469l-27.738281-27.742187v-106.253906c0-3.976563-1.582031-7.792969-4.394531-10.605469l-71.765625-71.761719c-5.855469-5.855469-15.355469-5.855469-21.210937 0-5.859376 5.859375-5.859376 15.355469 0 21.214844l67.371093 67.367187v106.253907c0 3.976562 1.582031 7.792968 4.394531 10.605468l32.132813 32.132813c2.929687 2.929687 6.765625 4.394531 10.605469 4.394531zm0 0" fill="#007f41"/><path d="m446.378906 333.386719c5.855469-5.855469 5.855469-15.351563 0-21.210938l-66.78125-66.78125c-2.8125-2.8125-6.628906-4.394531-10.605468-4.394531h-87.832032c-8.285156 0-15 6.714844-15 15s6.714844 15 15 15h81.617188l62.386718 62.386719c5.859376 5.859375 15.355469 5.859375 21.214844 0zm0 0" fill="#007f41"/><path d="m264.550781 110.332031h-32.152343c-21.554688 0-39.097657-17.425781-39.097657-39.097656 0-21.597656 17.46875-39.101563 39.097657-39.101563h32.132812c21.554688 0 39.101562 17.429688 39.101562 39.101563 0 21.566406-17.53125 39.097656-39.082031 39.097656zm0 0" fill="#00d66a"/><path d="m264.535156 32.128906h-16.078125v78.199219h16.089844c5.199219 0 10.160156-1.019531 14.699219-2.867187 14.289062-5.820313 24.390625-19.859376 24.390625-36.230469 0-21.671875-17.550781-39.101563-39.101563-39.101563zm0 0" fill="#00b85e"/><path d="m248.46875 495.933594c-30.425781 0-54.566406-25.671875-52.785156-55.976563l13.707031-233.039062c.46875-7.929688 7.035156-14.117188 14.976563-14.117188h48.199218c7.941406 0 14.507813 6.1875 14.972656 14.117188l13.707032 233.039062c1.785156 30.246094-22.304688 55.976563-52.777344 55.976563zm0 0" fill="#00d66a"/><path d="m301.246094 439.960938-13.679688-232.53125-.03125-.507813c-.460937-7.933594-7.027344-14.121094-14.96875-14.121094h-24.109375v303.128907h.007813c30.480468 0 54.5625-25.730469 52.78125-55.96875zm0 0" fill="#00b85e"/><path d="m272.566406 222.800781h-48.199218c-8.285157 0-15-6.714843-15-15v-67.441406c0-23.15625 11.503906-44.652344 30.773437-57.503906 2.460937-1.644531 5.359375-2.523438 8.324219-2.523438 2.960937 0 5.863281.878907 8.328125 2.523438 19.269531 12.851562 30.773437 34.347656 30.773437 57.503906v67.441406c0 8.285157-6.714844 15-15 15zm0 0" fill="#00b85e"/><path d="m153.390625 205.148438s-18.277344-9.140626-38.914063-19.453126c-19.78125-9.894531-36.382812-25.0625-48.007812-43.875-11.625-18.808593-17.769531-40.441406-17.769531-62.554687 0-5.199219 2.691406-10.027344 7.113281-12.757813 4.425781-2.734374 9.949219-2.984374 14.597656-.65625 0 0 18.277344 9.140626 38.914063 19.453126 19.78125 9.894531 36.378906 25.0625 48.003906 43.875 11.625 18.808593 17.773437 40.4375 17.773437 62.554687 0 5.199219-2.695312 10.027344-7.117187 12.757813-4.417969 2.734374-9.941406 2.984374-14.59375.65625zm0 0" fill="#00b85e"/><path d="m279.246094 107.460938c-5.269532-9.761719-12.910156-18.242188-22.449219-24.609376-2.472656-1.640624-5.371094-2.523437-8.332031-2.523437h-.007813v142.472656h24.109375c8.28125 0 15-6.722656 15-15v-67.441406c0-11.6875-2.929687-22.960937-8.320312-32.898437zm0 0" fill="#00984c"/><path d="m328.972656 204.492188c-4.421875-2.730469-7.113281-7.558594-7.113281-12.757813 0-22.113281 6.144531-43.746094 17.769531-62.554687 11.625-18.8125 28.222656-33.980469 48.003906-43.875 20.636719-10.3125 38.914063-19.453126 38.917969-19.453126 4.644531-2.328124 10.171875-2.078124 14.59375.65625 4.421875 2.730469 7.113281 7.558594 7.113281 12.757813 0 22.113281-6.144531 43.746094-17.769531 62.554687-11.625 18.8125-28.222656 33.980469-48.003906 43.875-20.636719 10.3125-38.917969 19.453126-38.917969 19.453126-4.652344 2.328124-10.171875 2.078124-14.59375-.65625zm0 0" fill="#00984c"/></svg>